<svg xmlns="http://www.w3.org/2000/svg" viewBox="0 0 372.82 79.74"><defs><style>.cls-1{fill-rule:evenodd;}</style></defs><title>Fichier 1</title><g id="Calque_2" data-name="Calque 2"><g id="Layer_1" data-name="Layer 1"><g id="xPaPGe"><path class="cls-1" d="M52.68,4.17c.18-.11.3,0,.43.25a8.89,8.89,0,0,0,.57.91c0,.26.06.55.09.84h.11V5.49c.25.29.56.47.52.93s0,.58-.44.45c-.07,0-.15,0-.31.12l.55.15-.27.12-.62,1.25-.65,1.32-.22-.55c-.05.11-.14.21-.12.26.31.62,0,1.05-.37,1.52A15.63,15.63,0,0,0,51,12.54c-.33.56-.62,1.15-1,1.7-.11.18-.36.27-.53.38a3.48,3.48,0,0,1-.14.55,4.21,4.21,0,0,1-1.06,1.56,3,3,0,0,0-.53,1.09,4.68,4.68,0,0,1-1.29,1.77.8.8,0,0,0-.16.25c-.16.34-.3.69-.48,1-.34.58-.9,1-1,1.75a.9.9,0,0,1-.38.5,1.19,1.19,0,0,0-.58,1.07l-.51.17c-.24.08-.39.19-.2.47a.43.43,0,0,1,0,.37c-.21.34-.45.66-.67,1-.11.16-.2.33-.32.53h-.54c.23.24.35.41.07.66s-.2.43-.32.65-.28.46-.43.69-.11.49-.47.28c-.06,0-.26.12-.34.23a.51.51,0,0,0,0,.33c.38.08.08.28,0,.29-.31,0-.23.25-.32.44a3.5,3.5,0,0,1-.66.8l-.35.73c-.63-.43-.63-.43-1,.1.32.63.29.85-.25,1.36a8.45,8.45,0,0,0-1.21,1.47A8.11,8.11,0,0,1,35,36.06l.16.29-.71.24.11.1a1.42,1.42,0,0,1-.1.49c-.25.38-.41.88-1,1,0,0,0,.11-.08.15l-.55.7s-.11.09-.11.14c.08.82-.8,1-1.06,1.56a4.9,4.9,0,0,1-.46.68l.08.16a5.34,5.34,0,0,0-.75,0,.55.55,0,0,0-.54.62,1.14,1.14,0,0,1-.31.77c-.31.46-.54,1-1.12,1.16-.06,0-.05.22-.09.37l-1,.6-.24.57-.56-.38v.9l-.5.53L26,46l-.45,1.36L25.19,47c-.07.14-.23.29-.2.41.11.56.13.56-.45.58l-.61,0c.13.63-.27,1-.68,1.37a3.52,3.52,0,0,1-.59.26,1,1,0,0,0-.38.32c-.15.26-.23.55-.36.82a4.36,4.36,0,0,1-.32.48l-.3-.33c.05.53.19,1.07-.6.95l0,.52-.75.35.16.2a.83.83,0,0,0-.21.18c-.12.23-.36.51-.31.7s.38.37.61.51.51.27.77.39a.55.55,0,0,0,.16.07,7.89,7.89,0,0,0,2.29.32c.59-.08,1.19,0,1.79,0,.35,0,.7-.2,1-.2.62,0,1.18-.25,1.79-.29.11,0,.22.08.29.06A10.42,10.42,0,0,1,31.48,53a7.24,7.24,0,0,1,.57-.57,8.48,8.48,0,0,1,1.25-.93,2.91,2.91,0,0,0,1-1c-.29-.81.71-1.43.45-2.32.5,0,.61-.11.63-.57a2.24,2.24,0,0,1,.55-1.18c.13-.17.5-.17.74-.24-.13-.15-.51-.31,0-.51.1,0,.08-.35.15-.53a.9.9,0,0,1,.23-.44,2.1,2.1,0,0,1,.62-.19.33.33,0,0,1,0-.13,1.67,1.67,0,0,1,.06-.64,4.17,4.17,0,0,1,.53-.69c.47-.59.92-1.19,1.4-1.77a16.05,16.05,0,0,1,1.61-1.84,2.68,2.68,0,0,0,.73-.92.4.4,0,0,1,.17-.21c.39-.17.79-.33,1.2-.47.08,0,.2,0,.33,0l-.2.37c.32,0,.72.19.85.07.39-.37.67-.16.91.08a8.76,8.76,0,0,1,.75.94s.05.13.1.14c.51.11.37.46.37.82s.24.5.38.76a4.15,4.15,0,0,0-.89,2,6.07,6.07,0,0,1-.52,1.28,2.85,2.85,0,0,0-.16.52c-.08.41-.23.5-.54.37a4.64,4.64,0,0,1-.28,1,4.42,4.42,0,0,1-.89,1.59s0,.17,0,.24a2.63,2.63,0,0,1-.29.47c-.18.22-.42.41-.58.65-.39.54-.72,1.13-1.14,1.65-.17.21-.53.27-.89.43l.34.44-.79,0,.65.36-.79.42-.18-.62-.35.26.2,1.12-.59,0c-.07.66-.62.89-1.15,1.14.52.35.49.85.58,1.32,0,.11.17.21.28.29a3.21,3.21,0,0,1,.43.3,1.17,1.17,0,0,0,1.43.31c.11.4.32.43.68.25a6.51,6.51,0,0,1,1-.29c.41-.13.87-.06,1.21-.47.13-.16.53-.07.78-.16.44-.17.87-.4,1.31-.61l-.06.56h.14c.26-.69.3-.72.66-.51a5.07,5.07,0,0,1,.66-.28c.42-.1.65-.31.66-.74-.22.41-.46.61-.86.27a2.59,2.59,0,0,0,1.45-1.35,1.09,1.09,0,0,1,1.23-.42l.41.18-.07-.52c.67-.15.11-.82.48-1.05a1.9,1.9,0,0,1,.57-.12,5.1,5.1,0,0,1,.82.21l.46.14.06-.1c0,.05.09.11.08.15a.71.71,0,0,0,.4,1c.11.06.16.36.12.51-.12.41-.3.81-.48,1.31.18.26.12.38-.33.66l-.38.47c-.36.45-.7.91-1.06,1.36a1.63,1.63,0,0,1-.4.37c-.41.26-.86.46-1.24.75s-.34.31-.83.19l.56-.26-.06-.18-.92.24a2.37,2.37,0,0,1,.19.45,1.49,1.49,0,0,1,0,.39l-.34-.15c-.07,0-.15-.12-.21-.11a1.78,1.78,0,0,0-.47.1s0,.14,0,.21l.46,0a.51.51,0,0,1,.13,0,.69.69,0,0,1-1,.35c-.12.48-.33.54-.8.23,0,.32-.07.7-.54.43a1,1,0,0,1-1.46.22l0,.18-.09.42a2.07,2.07,0,0,1-.33-.29c-.14-.19-1-.4-1.14-.24a.32.32,0,0,0,0,.28,2.6,2.6,0,0,0,.32.42A7.63,7.63,0,0,1,39,60.33l.17.35c-.07,0-.13.06-.18,0a3.23,3.23,0,0,1-1.14-.34,2.52,2.52,0,0,0-.68-.46s-.06-.05-.08,0c-.79.4-.77-.7-1.37-.73-.22,0-.42-.4-.65-.64l.12-.46c-.42.4-.57.23-.68-.07,0-.1-.1-.19-.15-.29-.19-.45-.19-.46-.88-.95a2.68,2.68,0,0,1-1.85,1l-.53.64L31,58.05a4.06,4.06,0,0,1-.77.43c-.84.25-1.7.47-2.55.68a4.4,4.4,0,0,1-.77,0l-1.27.09L25.54,59a2.19,2.19,0,0,1-2.27.13l-.42.44-.08-.57a1.31,1.31,0,0,1-1.28-.17c-.18,0-.36.15-.49.12a2.7,2.7,0,0,1-1.22-.43,1.16,1.16,0,0,0-.89-.29c.23-.4.23-.4.67-.3,0-.3-.25-.4-.57-.21s-.5.27-.78-.06c-.14-.16-.46-.16-.68-.28s-.5-.35-.74-.53-.55.09-.8.22-.35.2-.59.35a1.76,1.76,0,0,1-1.51,1.13c0,.51-.17.63-.61.54a.9.9,0,0,1,0,.31c-.11.2-.25.54-.37.54-.85,0-.78.63-.91,1.14-.07.26-.14.42-.48.3a1.47,1.47,0,0,0-.62,0l.25.75c-.78-.1-.52.59-.78.81l-.79-.17a1.2,1.2,0,0,1-.61,1.28l-.73-.48a.73.73,0,0,0,.26,1.09l-.88.33a1.33,1.33,0,0,1-.09.41c-.11.18-.11.45-.51.39-.22,0-.5.35-.8.58l-.26-.5a1,1,0,0,1-.27.12c-.57.06-.63.16-.56.72a.87.87,0,0,1-.19.68c-.24.21-.54.56-.91.22-.15-.13-.19-.39-.29-.63-.23.07-.63-.14-.73.35l-.46,0c0,.14,0,.27.06.41l-.66-.12.31-.74c-.27.12-.47.14-.57.26-.34.39-.42.4-.73,0,0-.05-.14-.06-.29-.12l.44-.24-.19-.37-.33.4c-.69-.31,0-.79-.2-1.2L0,65.9c0-.22,0-.38,0-.54a7.6,7.6,0,0,0,0-.79c0-.26,0-.43.3-.46L.85,64c-.16-.12-.29-.17-.33-.27a.65.65,0,0,1-.09-.45,2,2,0,0,1,.41-.61c.25-.26.15-.43-.17-.64l.85-.32c0-.34.09-.76.15-1.18a.69.69,0,0,1,0-.22c.14-.28.3-.55.48-.89L3,59.24a1.62,1.62,0,0,1-.15-1.34c0-.11.19-.29.27-.28.52.05.44-.23.41-.58-.11-1,.71-1.46,1.26-2.12a1.73,1.73,0,0,1,.89-1.37l-.17-.38c.11-.07.3-.14.29-.19a1.22,1.22,0,0,1,.61-1.07s0-.11.06-.11c.83,0,.32-.62.34-.94s.05-.39.42-.33a5,5,0,0,0,1.17,0,.59.59,0,0,0,.07-.36,3.89,3.89,0,0,0-.17-.58l-.63.29c-.33-.4.28-.45.23-.79l.37.21c0-1.29.62-1.85,1.87-2,.14-.27.36-.54.84-.22.11.07.31,0,.47,0,.41,0,.82.09,1.23.16.09,0,.17.12.26.17s.18.16.26.14c.29-.06.46.09.68.25s.73.37,1.07.6c.18.12.27.36.44.52s.62.53,1,.82l1.64-1.46,0,0c.15-.14.38-.26.45-.44.28-.69,1.19-.79,1.41-1.54,0-.14.34-.19.49-.31a1.5,1.5,0,0,1,.66-.4c0-.19,0-.37.07-.55l.53.16-.36-.4s0-.09,0-.13l.63,0-.2-.79.46.15c0-1.09,0-1.09.64-1.06l.82-.86c.06-.07.16-.15.16-.22,0-.54.5-.66.71-1,0-.05.16-.07.25-.07a.92.92,0,0,0,1-.8l.33.18.11,0-.32-.79.18.05.41-.38c.06-.06.12-.14.19-.16.9-.22,1-.31.94-1.2,0,0,0-.05.05-.11l.38.12.45.09c-.39-.39-.35-.56.12-.78a.73.73,0,0,0,.29-.21c.25-.37.47-.75.71-1.12a.36.36,0,0,1,.16-.16c.5-.15.56-.58.67-1s.48-.33.87-.35l-.36-.33.38-.21c.09-.51,1-1.47,1.51-1.5l-.17-.3c.28,0,.42-.14.4-.5,0-.2.33-.43.54-.67-.07-.53.06-.66.5-.56l.35-.55c.09-.14.26-.27.27-.41,0-.57.13-.67.71-.73,0-.17,0-.39.07-.51a1.12,1.12,0,0,1,.5-.25,3.44,3.44,0,0,1,.4-.1L36,27.16l-.15-.06.83-1.19c.29-.42.59-.84.86-1.28s.32-.69.54-1c.09-.12.34-.12.48-.16a6.72,6.72,0,0,0,.78-1c.09-.17,0-.45-.07-.7l.61,0c-.21-.49,0-.74.38-1a1.64,1.64,0,0,0,.64-1.33,3.41,3.41,0,0,0,.48-.24.69.69,0,0,0,.24-.3,14.15,14.15,0,0,1,.69-1.8c.49-.87,1.08-1.7,1.65-2.53.09-.13.28-.18.49-.31a4.51,4.51,0,0,1,.75-1.57A7.31,7.31,0,0,0,46,11.35c.19-.52.42-1,.66-1.52.05-.11.19-.17.29-.26s.52-.28.51-.75A2.7,2.7,0,0,1,48,7.57c.27-.46.65-.86.92-1.31.42-.7.79-1.43,1.17-2.15.15-.29.67-.56.88-.44l.25-.29a9.19,9.19,0,0,1,1,.36A2.79,2.79,0,0,1,52.68,4.17Zm-44.39,54c.13-.1.23-.15.23-.19-.09-.73.57-1,1-1.32a7.36,7.36,0,0,1,1.26-.79c.07,0,.1-.16.15-.24.17-.29.29-.68.54-.84s.43-.15.55-.4c0-.07.21-.08.33-.12,0-.8,0-.8.65-.64a1.15,1.15,0,0,0-.06-.35c-.23-.42-.48-.85-.74-1.26a.39.39,0,0,0-.34-.14c-.39.15-.77.33-1.15.51.43.23.42.23.12.6a1.72,1.72,0,0,0-.2.41A5.22,5.22,0,0,1,10,54.74a9,9,0,0,0-.65.83c-.13.2-.3.38-.42.59A3.17,3.17,0,0,0,8.29,58.19ZM9.56,47.71c.05.24.07.39.12.53s.09.29.18.32.31-.07.33-.14A.57.57,0,0,0,10.1,48,1.77,1.77,0,0,0,9.56,47.71ZM52.81,4.57l-1,.19C52.25,5.14,52.48,5.1,52.81,4.57Zm-14,48.88c-.13,0-.33-.13-.38-.08a2.09,2.09,0,0,0-.32.49l.13.1Z"/></g><g id="_70Msxh" data-name="70Msxh"><path class="cls-1" d="M218.88,53.68a6.9,6.9,0,0,0,1.35-.31c.33-.15.57-.51.88-.73a5.48,5.48,0,0,1,1-.53c.11,0,.27,0,.42.07-.1-.3-.09-.54.34-.52.08,0,.18-.1.26-.15l.79-.45c.1-.06.28-.15.27-.21-.06-.39.3-.34.48-.46s.53-.24.75-.42c.46-.35.89-.74,1.34-1.11.06,0,.12-.14.18-.14.77,0,1-.69,1.46-1.14A5,5,0,0,1,229,47c.07-.05.21,0,.31,0a.38.38,0,0,0,.31-.14l-.18-.06L232,44.17l-.12-.13.31.2c0,.13,0,.26,0,.34a4,4,0,0,0,.76-.25,1.42,1.42,0,0,0,.45-.48c0-.06-.09-.22-.21-.47a1,1,0,0,1-1,.87l.61-1.32.52.06-.19-.36,1.49-1.86a1.19,1.19,0,0,0,.21.1c.11,0,.26.07.34,0s.05-.21.08-.32a4.72,4.72,0,0,1,.18-.63,1.41,1.41,0,0,1,.27-.37c.11-.13.24-.24.46-.44,0-.46.55-.22.9-.38.18-.29-.22-.76.26-1a4.72,4.72,0,0,0,.75-.71l.11.06-.11.52c.5-.24.58-.59.19-.87l1.76-2.22-.11-.1.46-.1-.1-.41.73-.41,0-.08a5.75,5.75,0,0,1,.4-.59c.3-.35.62-.68,1-1,0,0,.21,0,.32,0a1.15,1.15,0,0,1,1.25-.86l-.12.44c.32.13.42,0,.44-.28s.09-.41.35-.37.71-.19.92.26l.44-.33c.06,0,.1,0,.11.06.18.28.32.54.76.52.61,0,.89.53,1.26.87a8.7,8.7,0,0,1,.93,1.1,4.69,4.69,0,0,1,.25.46c.08.14.22.25.29.4a3.65,3.65,0,0,1,.56,1.18,23.52,23.52,0,0,1,.06,3.07,7.7,7.7,0,0,1-.34,1.68c0,.19-.23.34-.38.53l-.24-.27-.09,0a1,1,0,0,0,.13.37c.25.28.27.57,0,.75a.6.6,0,0,1-.25.06,2.76,2.76,0,0,1-.08,1c-.12.24-.44.37-.6.58l-.32.56c-.1.16-.21.32-.3.48s-.3.52-.44.79c-.05.11-.09.23-.14.34a6.17,6.17,0,0,1-.54.94,4.93,4.93,0,0,1-1.49,1.51c-.24.13-.27.68-.4,1.07h-.12c-.25.27-.42.62-.63.65-.49.08-.6.47-.84.77-.1.13-.23.24-.44.46v-.49l-.12-.07a1.58,1.58,0,0,1-1.15,1.49c0-.09,0-.16.08-.19a.77.77,0,0,1,.22-.08l-.09-.15A4.75,4.75,0,0,0,241,51c-.33,0-.49.25-.34.55s.1.64-.37.66-.71,0-1.17,0a6.33,6.33,0,0,1,0,.84.37.37,0,0,1-.28.23.61.61,0,0,1-.42-.24c-.18,0-.38.06-.52,0-.3-.16-.44-.09-.44.17a9.5,9.5,0,0,1-1.18.08,5.15,5.15,0,0,1-1.25-.19c-.39-.12-.31-.44-.08-.83a4.52,4.52,0,0,1-.91-.21c-.2-.1-.48-.3-.5-.48-.1-.67-.23-.88-.92-1.11l.9-.95h.71l.77,0c.36,0,.71.06,1.06,0a1.8,1.8,0,0,0,.58-.19l1.18-.53c.18-.08.37-.14.63-.23l-.17.66c.28,0,.32-.56.63-.07l0-.36a4.71,4.71,0,0,0,.46-.42s0-.18-.06-.27-.2.08-.22.15a4.29,4.29,0,0,0-.16.56c-.46-.32-.49-.4-.08-.75s.65-.41.95-.64c.09-.07.1-.24.16-.39l.53.15c-.29-.6.19-.8.48-1.14.48-.54.89-1.15,1.31-1.74s.86-1.33,1.35-1.94a17.11,17.11,0,0,0,1.38-2.3,7.57,7.57,0,0,0,.47-1.32c.14-.4.31-.79.45-1.18.06-.18.06-.38.11-.57s.16-.54.27-.88a4.46,4.46,0,0,1-.27-.64c-.12-.46-.41-.55-.86-.37a3.11,3.11,0,0,0-1.13.83c-.06.07-.24,0-.37,0-.19.25-.41.54-.62.84a5.22,5.22,0,0,0-.37.59c-.15.3-.19.68-.66.7-.08,0-.15.24-.25.43l-.8-.79a2.07,2.07,0,0,1-.29,1.74c-.12.16,0,.48-.14.66-.28.48-.61.93-.92,1.39a1.1,1.1,0,0,0-.12.19c-.18.47-.18.47-.54.27-.15.25-.29.49-.45.73s-.14.55-.47.64a1,1,0,0,0-.31.13c-.12.08-.26.17-.31.29s-.07.47-.43.51c-.13,0-.31.27-.34.44a1,1,0,0,1-.72.78.46.46,0,0,0-.27.28c-.1.51-.4.65-1,.44l.2.35c-.12.2-.22.38-.34.55s-.24.44-.37.45c-.47,0-.48.44-.69.68-.45.5-1,1-1.4,1.46-.25.28-.63.45-.68.91,0,.12-.3.24-.48.31a2.32,2.32,0,0,1-.54.08l.11.42c-.26.17-.52.33-.76.51s-.42.38-.64.56-.37.28-.63.47c-.06.42-.5.64-.89.9s-.58.3-.84.48a.64.64,0,0,0-.17.3c-.47.29-.86.54-1.27.77s-.54.25-.82.37l-.08-.11-.07.38-1.78.76-.61-.09,0,.14.51.21a3,3,0,0,1-.53.28,2.14,2.14,0,0,0-1.31.64c-.07.09-.28.09-.43.12l-1.53.25-1-.6,0,0c-.42.05-.85.1-1.27.17-.24,0-.48.13-.77.21,0,.33,0,.35-.44.15-.18-.09-.37-.15-.6-.25l.32-.44c-.14,0-.33,0-.34,0-.14.38-.36.18-.55.08a4.1,4.1,0,0,1-1-.56,4.44,4.44,0,0,1-.89-1.17c-.18-.35-.29-.37-.57-.13s-.53.36-.79.54c-.07,0-.11.14-.17.19l-.47.44-.1-.63-.55.7.3.12-.82.59L209,58l-.44-.16a1.08,1.08,0,0,1-.66,1.14c-.39.24-.65.67-1.24.32.12.73-.43.85-.81,1.1l-1.22.81-.37-.3,0,.42a4.55,4.55,0,0,1-1.37.24,1.65,1.65,0,0,0-1.33.51c-.45-.07-.83-.58-1.38-.22l-.08-.54-.25.45c-.42-.35-.84-.66-1.23-1a.62.62,0,0,1-.14-.46c0-.36-.14-.53-.4-.77a3.26,3.26,0,0,1-.55-1.12c0-.08,0-.23-.05-.25-.52-.22-.31-.56-.15-.91l-.33-.06-.22-1.72.41.25.09-.08a2.32,2.32,0,0,1-.18-.22c-.06-.09-.11-.18-.17-.28a1.62,1.62,0,0,1,.32,0c.09,0,.17.13.25.12s.15-.11.23-.16a.83.83,0,0,0-.16-.17c-.33-.2-.73-.29-.76-.81s.38-1,.61-1.48c-.07-.16-.19-.37-.28-.6a.34.34,0,0,1,0-.21c.06-.19.14-.37.19-.56s.16-.6.26-.9c0-.13.18-.26.16-.37-.17-1,.4-1.78.55-2.67.07-.43.18-.85.28-1.33-.69.16-.89.83-1.34,1.29l-.43-.28c.12,1.19-.82,1.7-1.51,2.36s-1.42,1.33-2.16,2a8.52,8.52,0,0,1-.87.57c-.74.49-1,1.49-1.89,1.7-.28.32-.51.56-.72.82s-.58.72-.93,1.15h-.29l.09.11c-.35.34-.72.66-1,1s-.75.9-1.13,1.34-.58.61-.86.93a1.26,1.26,0,0,0-.15.26c-.07.12-.12.32-.22.35s-.29-.07-.35-.08A7.31,7.31,0,0,1,183.34,61c-.5.3-.66,1.2-1.5.93-.16.44-.34.85-.9.92a.81.81,0,0,0-.4.3,2.51,2.51,0,0,1-1.47.67,1.22,1.22,0,0,0-.48.26c-.29.25-.33.24-.44-.14-.19.1-.41.32-.56.27s-.24-.34-.35-.52l-.89-1.37-.24.49-.16-.06.14-.68-.76-.33.53-.16v-.08c-.08,0-.19,0-.24-.08s-.32-.28-.32-.42a8,8,0,0,1,.15-1.23c0-.24.06-.61.21-.67.41-.2.19-.63.42-.87.05-.05,0-.24-.07-.4l.18,0c.07-.32.13-.61.19-.9a3.26,3.26,0,0,1,.36-1.28c.45-.52.38-1.26.88-1.75.24-.23.26-.68.41-1,0-.1.2-.24.29-.23.47,0,.4-.25.37-.53,0-.11,0-.3,0-.31a1.38,1.38,0,0,1,.39-.06l.42-.07c-.1-.14.33-.35-.07-.47a.62.62,0,0,1,0-.43c.37-.5.78-1,1.14-1.47s.47-.79.76-1.13A20.52,20.52,0,0,1,183,46.42a10.83,10.83,0,0,0,1.24-1.66,2.64,2.64,0,0,1,1.28-.92l.09.46c.11-.12.28-.23.27-.32a3.43,3.43,0,0,0-.23-.71l1.31-1.87c.59,0,.49,0,.46-.53a1.11,1.11,0,0,0,.91-.6,4.46,4.46,0,0,1,.74-.71c.23-.21.57-.38.69-.64.28-.59.87-.79,1.29-1.18s.64-.53,1-.78.75-.81,1.2-.93c1-.26,1.77-1.05,2.76-1.38a2.32,2.32,0,0,0,.56-.43l.21.13a6.76,6.76,0,0,1,.94-.51,2.86,2.86,0,0,1,1-.12,1.94,1.94,0,0,1,1.28-.32c.32,0,.67-.08,1,0l.78.25c.41.14.84.27,1.24.45s.53.26.56-.23a.69.69,0,0,1,.13-.29,16.47,16.47,0,0,1,1-1.64,10.65,10.65,0,0,0,1-2.14c.27-.6.65-1.1,1-1.67.14-.27.27-.56.42-.83s.29-.56.46-.82c.39-.59.79-1.17,1.18-1.76a.5.5,0,0,0,.06-.26c0-.32,0-.57.33-.83s.27-.69.41-1,.21-.43.31-.64c.27-.54.51-1.09.82-1.6a5.06,5.06,0,0,1,.76-.93,2.78,2.78,0,0,1,.6-.36l-.09-.14-.54.12a2.64,2.64,0,0,1,1-2.17c.53-.44.63-.44,1,.16l.23.34c.22-.53.26-.5.63-.24a5.51,5.51,0,0,1,1.25,1.48,1.1,1.1,0,0,1,.07.58,5.6,5.6,0,0,1-.07.61l-.33.23.54.12-.39.61c.41.31.18.69,0,1.1a10,10,0,0,0-.7,2,1.16,1.16,0,0,1-.38.64c-.36.33,0,.8-.32,1.17a2.07,2.07,0,0,1-1.4.86,2.64,2.64,0,0,0,.3.3,3,3,0,0,0,.35.18,6.71,6.71,0,0,0-.7.83c-.13.23,0,.59-.33.74a2.45,2.45,0,0,0-.49.32,5.72,5.72,0,0,1-.81,1.69,4.12,4.12,0,0,0-.68,1.44c0,.05,0,.14-.08.15-.58.16-.62.71-.82,1.14a4.41,4.41,0,0,1-.24.44c-.15.23-.31.46-.54.79a3.23,3.23,0,0,0-1.31,1.82l-.46,0c-.25.37,0,.31.39.28-.21.37-.39.66-.54,1a4.94,4.94,0,0,0-.65,1.48,12.65,12.65,0,0,1-.6,1.74,2.39,2.39,0,0,1-.33.75l-.12-.83-.19,0c.54,1.59-.56,2.66-1,3.94-.13.36-.16.82-.41,1.06a3,3,0,0,0-.72,1.93,1.22,1.22,0,0,1-.11.25l-.13-.29c-.44.43-.45.56,0,.77a7,7,0,0,0-.47,1c-.19.71-.33,1.43-.48,2.15,0,.07,0,.2,0,.22-.65.39-.48,1.08-.58,1.66s-.09,1.25-.14,1.87c0,.12,0,.24-.05.36l-.51-.28,0,.05.49.62-.6.52c.68-.14.69-.14.69.59a.46.46,0,0,0,.61.4,2.72,2.72,0,0,1,.83-.14c.16,0,.31.18.52.32l.3-1c.25.11.53.5.57-.08a.09.09,0,0,1,.06-.06c.82,0,1.11-.95,1.92-1.11.4-.09.7-.68,1-1a1,1,0,0,1,1.21-.41c.14-.23.09-.72.58-.37.15-.9.95-1.21,1.48-1.74s1.4-1.11,1.59-2.07c0-.21.14-.51.29-.57.36-.14.34-.35.27-.62-.12-.43.21-.7.34-1s.23-.91.41-1.33.44-.57.55-.89a15.79,15.79,0,0,1,1.36-2.73,1.55,1.55,0,0,0,.06-.49s.17,0,.21-.12a2.59,2.59,0,0,1,.8-1c.12-.09.1-.36.15-.54s0-.19.07-.21c.77-.37.72-1.27,1.2-1.83a16.35,16.35,0,0,0,1.16-1.68c.13-.2.19-.45.33-.65.42-.56.87-1.09,1.29-1.64s.83-1.19,1.28-1.76a7.82,7.82,0,0,1,.81-.77l.06-.07c.66-.76,1.3-1.53,2-2.27a1.84,1.84,0,0,1,1.19-.8c.13,0,.21-.26.35-.37.37-.29.76-.54,1.13-.83a5.27,5.27,0,0,0,.52-.54l.81.14-.13.46.1.06.24-.47L230,29a4,4,0,0,1,0,2.67c-.16.51-.24,1-.43,1.54a10.94,10.94,0,0,0-.74,2.33c0,.36,0,.74-.27,1-.52.49-.53,1.18-.8,1.76a1.15,1.15,0,0,1-1.06.62l.06.25c0,.1.1.24.07.29-.37.45-.75.9-1.16,1.31-.08.08-.3,0-.58,0l.44.38-1,1,0,0c-.12.2-.24.4-.37.59-.35.52-.68,1.05-1.06,1.54a11.46,11.46,0,0,1-.92.94c-.05.05-.13.12-.13.19,0,.37-.26.41-.56.28-.08.51-.48,1-.71,1,0,.12,0,.25,0,.38l-.32-.15-.48,1-.17-.06.18-.77a4.39,4.39,0,0,0-.72.4.38.38,0,0,0,0,.38,2.2,2.2,0,0,0,.56.3c-.23.24-.49.48-.72.74a16,16,0,0,1-1.53,1.69c-.51.42-.83,1.1-1.54,1.28-.05,0-.13.07-.13.11,0,.46-.47.62-.64,1a2,2,0,0,0-.14.77,3.81,3.81,0,0,0,.06.63l.49-.09c.3.45.79.39,1.21.28.22.1.4.25.52.22s.15-.28.23-.46l.4.11.12-.35.06.08.75-.4-.34.59.1.09.61-.28ZM195.14,43.49l.35.12c-.16-.85.64-.26.75-.51s0-.52.08-.74c.1-.56.59-.79,1-1.12a10.16,10.16,0,0,0,.95-.88c.24-.28.37-.67.61-1,.47-.56,1-1.09,1.47-1.64.07-.08.06-.23.09-.34a1.81,1.81,0,0,0-.38,0c-.3.1-.6.22-.9.33-.1,0-.26,0-.29.11-.25.51-.69.43-1,.39a2.75,2.75,0,0,1-.55.5A3.3,3.3,0,0,0,195.78,40c0,.07-.18.09-.27.14a2.26,2.26,0,0,0-.44.19c-.53.39-1,.8-1.56,1.2-.68.54-1.37,1.06-2,1.63-.25.22-.4.54-.63.79s-.71.7-1.08,1-.46.7-1,.57c0,0,0,0-.07.07l.22.2c-.26.18-.25.74-.78.49,0,.07-.1.17-.08.19.24.26,0,.4-.13.56a7.07,7.07,0,0,0-.67.7c-.57.79-1.11,1.6-1.66,2.4,0,0-.09.09-.09.14a.65.65,0,0,1-.91.61,2.7,2.7,0,0,1-.73,1.49c-.15.2-.38.35-.49.57a4.56,4.56,0,0,1-.5.89c-.63.8-1.17,1.69-1.74,2.55l.08.11,1.08-.52c.06-.09.19-.25.3-.42.4-.6,1.14-.81,1.59-1.39a22.21,22.21,0,0,1,1.64-1.67,8,8,0,0,0,.55-.71l.06.63.12,0a2.14,2.14,0,0,1,1-1.65c.55-.33.75-1.16,1.63-1-.36-.29-.25-.48,0-.7s.51-.6.78-.88.56-.48.81-.75c.43-.45,1.07-.67,1.34-1.32.09-.23.48-.34.73-.51a1.58,1.58,0,0,0,.3-.26c.22-.24.42-.49.67-.78L194,45c0-.39.08-.72.46-.61ZM225.37,40l.12,0c0-.14.13-.31.08-.41a1.69,1.69,0,0,0-.49-.69.45.45,0,0,0-.65.19l.21-.16Zm-22.44,3.8.11-.61a2.69,2.69,0,0,0-.57.11A.43.43,0,0,0,202.93,43.81Zm39.79-8.4-.15-.26c-.18.12-.37.23-.53.36a1.47,1.47,0,0,0,.13.24Zm-16.65,1.65c.21.49.38.51.8.17ZM208.44,54.45l0,.25.54.11c0-.1,0-.27,0-.28A2.94,2.94,0,0,0,208.44,54.45Zm28-9.73-.13-.18-.59.46.12.16Z"/><path class="cls-1" d="M216.56,58.77c-.35.27-.66.16-1-.11A.79.79,0,0,1,216.56,58.77Z"/></g><g id="v1nE2B"><path class="cls-1" d="M263.39,65.93l-.14-.34.93-.08c-.53-.43-.48-.91.11-1.34l-.1-.14,1.11-2h.35l-.11-.11a4,4,0,0,0,.38-.64,3.52,3.52,0,0,0,.14-.7l.47-.5s.12-.07.16-.12.3-.23.29-.33a.67.67,0,0,1,.52-.75c.16-.06.27-.23.43-.37,0-.19-.15-.52,0-.72.39-.71.85-1.38,1.29-2.06.18-.27.15-.73.65-.73,0,0,.07-.13.08-.2,0-.32.12-.53.55-.38,0,0,0-.09,0-.14l-.4-.24.25-.63.46,0a1.66,1.66,0,0,1-.16-.37c0-.09,0-.28.08-.28.73,0,.47-.73.7-1.09s.25-.56.64-.72a1.08,1.08,0,0,0,.46-.85c0-.62.48-.77.81-1.06a3.36,3.36,0,0,1,.67-.35c-.51-.83-.09-1.39.74-1.84l-.44-.25c1-.16.63-1,.87-1.49l.61-.07-.29-.51s.13-.13.19-.12c.44.13.5-.13.44-.45a.41.41,0,0,1,.2-.49c.19-.15.25-.47.35-.73a1.6,1.6,0,0,1,1-1.13c-.22-.31-.12-.48.17-.65s.32-.39.48-.58.27-.26.4-.39a2.88,2.88,0,0,0,.52-.58,11.89,11.89,0,0,0,.55-1.32,2,2,0,0,0,.06-.46c.3-.05.65-.07.38-.52a.15.15,0,0,1,0-.13l.92-1-.2-.18c.26-.28.52-.55.75-.84.09-.12.17-.35.12-.44a.8.8,0,0,0-.45-.26c-.29-.08-.58-.11-.91-.16-.33.57-.35.57-1,.22l-.67.12s-.11,0-.13,0c-.3.35-.67.17-1,.18-.56,0-1.12.1-1.68.13a2.61,2.61,0,0,1-.6-.11l-.12.27-1.42-.25a3.8,3.8,0,0,1-.62.2,3.84,3.84,0,0,1-1.59.15,4.53,4.53,0,0,0-1.28.11c-.54,0-1.08,0-1.62,0-.19,0-.38,0-.58.05-.47,0-1,.05-1.42.11s-1,.21-1.48.22a6.9,6.9,0,0,1-1.18-.2l-1.24-.17h0A6.56,6.56,0,0,1,261.72,34c-.12-.2.07-.63.2-.93a12.59,12.59,0,0,1,.63-1.14,1.92,1.92,0,0,1,2.31-.87,3.25,3.25,0,0,1,.62.45V31c.64,0,1.27-.05,1.91-.09s1.35-.11,2-.17a7.46,7.46,0,0,0,1.62-.18,3,3,0,0,1,1.6.05c.57.13,1-.27,1.53-.24a8.8,8.8,0,0,0,1.52,0c.37,0,.73-.22,1.11-.24.75,0,1.5,0,2.25,0,.14,0,.27-.11.41-.13l2.26-.29a3.12,3.12,0,0,0,.45-.12c.07,0,.17-.09.22-.06.37.2.7,0,1-.06.51-.12,1-.18,1.53-.32.12,0,.17-.24.28-.35s.3-.28.54-.49a1.94,1.94,0,0,1-.07-.2c0-.11-.1-.26-.05-.34.42-.75.86-1.49,1.31-2.23a.3.3,0,0,1,.18-.11c.31-.06.59-.1.4-.56,0-.08.32-.29.45-.47.28-.4.56-.8.81-1.23s.2-1.08.87-1.26c0,0,0-.32,0-.5h-.12l.5-.65h.4c.07-.36-.22-1,.55-.81,0-.42-.1-.91.57-.9.06-.42-.15-1,.57-1a.74.74,0,0,1,.37-.85,1.45,1.45,0,0,0,.36-.66c.25-.41.49-.82.75-1.23.1-.16.25-.28.35-.44a1,1,0,0,0,.14-.42c.2,0,.45,0,.3-.41,0-.06.08-.2.16-.27.28-.25.61-.44.67-.88,0-.23.15-.49.49-.42.05,0,.18-.08.17-.11-.11-.62.35-1,.56-1.52.08-.19.32-.3.54-.49a10.34,10.34,0,0,1,.5-1.1c.19-.32.48-.58.7-.88a5.22,5.22,0,0,0,.4-.71,3.22,3.22,0,0,0,.15-.4l.44.42.14-.1c-.37-.26-.41-.48-.05-.76a1.42,1.42,0,0,0,.38-.58.86.86,0,0,1,.77-.51c.37-.05.74-.07,1.09-.16s.75.26,1.06.46a5.5,5.5,0,0,1,1,1c.21.25.49.51.19.89l.51.34a3,3,0,0,0-.35.26c-.11.11-.28.26-.27.37,0,.34-.19.49-.36.7s-.39.58-.58.86c-.09.14-.2.26-.31.39s-.2.2-.27.31l-1.65,2.38c-.38.55-.75,1.11-1.14,1.65-.09.13-.27.19-.4.29s-.28.21-.29.32a2.08,2.08,0,0,1-.76,1.32s-.13.09-.12.12c.14.53-.37.72-.55,1.08s-.4.78-.61,1.16c0,.06-.15.08-.22.13s-.22.09-.25.17c-.19.46-.36.93-.5,1.33-.16.21-.28.38-.4.54s-.09.25-.17.27c-.52.15-.55.58-.65,1,0,.18-.29.31-.41.49-.53.84-1.06,1.69-1.57,2.55-.07.12,0,.32,0,.37-.39.56-.74,1-1.06,1.54-.15.24,0,.36.24.37a1,1,0,0,0,.57-.11c.33-.25.54-.07.74.13a2.54,2.54,0,0,1,1.51-.44c.34,0,.68-.13,1-.19s.62-.08,1-.12l.16.21c.21-.3,1.07-.47,1.24-.26.29-.37.73-.27,1.11-.34a2.39,2.39,0,0,0,.3,0,2.9,2.9,0,0,1,2-.09c.12,0,.29-.07.44-.1.52-.12,1-.29,1.57-.36a3.84,3.84,0,0,1,1,.14c.52-.41,1.28-.31,2-.41.53-.07,1-.18,1.57-.26.13,0,.27,0,.4,0a7.75,7.75,0,0,0,1.41-.19,1.38,1.38,0,0,1,1.46.32c.08.08.28.17.35.13s.14-.23.19-.36,0-.28.12-.33c.51-.3.62-.89,1-1.31.17-.21.32-.43.5-.67-.2-.46-.16-.55.3-.66.05-.21.1-.38.14-.55s.11-.28.08-.39c-.16-.46.37-.5.45-.8l.15.06c.09-.19.18-.34.24-.5.15-.39.51-.73.24-1.21,0,0,0-.13.06-.2.17-.45.7-.65.76-1.22,0-.24.43-.45.68-.69-.28-.23-.26-.46,0-.71a.71.71,0,0,0,.18-.41,1.6,1.6,0,0,1,.65-1.09,1.75,1.75,0,0,0,.43-.83,4.61,4.61,0,0,1,.92-1.74c.38-.51.72-1.06,1.09-1.58a3.23,3.23,0,0,1,.43-.42,3.46,3.46,0,0,1,.33-.3c.15-.11.32-.19.49-.28l.09.11c0-.1-.1-.25-.06-.29.43-.48.79-1.05,1.52-1.16a2,2,0,0,0,.51-.17c.25-.12.49-.29.77,0,.06.05.2,0,.31,0,.48,0,1-.13,1.32.42.05.08.22.09.33.15a1.76,1.76,0,0,1,.59.38,7.77,7.77,0,0,1,.8,1.4,2.72,2.72,0,0,1,0,.93c-.47-.06-.86-.11-.93.41a4,4,0,0,1-.47,0l-2.16,1.89c.22.78-.78,1.12-.81,1.91l-.43-.15-.38.58.44.09c-.19.24-.35.44-.52.64a4,4,0,0,0-.43.48c-.18.31-.29.66-.49,1a2.11,2.11,0,0,1-.58.4s.15.23.1.37-.25.24-.35.33v.58h-.48s0,0,0,0a1,1,0,0,1-.12,1.24,10.65,10.65,0,0,0-1,1.68l.35.6-.32-.09-.48.46H318l-.34.63s-.06.09-.05.12c.13.52-.33.75-.54,1.1-.37.63-.7,1.29-1,1.95a11.88,11.88,0,0,1-1.32,2.52,19,19,0,0,0-.87,1.69,4,4,0,0,0-.23.39,3,3,0,0,0-.32.67.83.83,0,0,1-.71.69l-.41,1.36H313c.7,0,1.41,0,2.11.07a.8.8,0,0,1,.57.42c.1.27.3.35.46.52a4.86,4.86,0,0,1,.73,1.13c0,.09-.12.29-.15.35a2.51,2.51,0,0,1,.24.4,7.93,7.93,0,0,1,.29,1,1.59,1.59,0,0,1-.09.52s0,.09,0,.12c.36.87-.15,1.77.08,2.61a2.41,2.41,0,0,1-.49,2.2c.29.5-.5,1,0,1.55.07.06-.06.32-.09.48a4.91,4.91,0,0,0-.15.77c0,.72,0,1.44,0,2.15a8.65,8.65,0,0,0,.35,1.89c.1.69.83,1,.85,1.67a2.79,2.79,0,0,0,.19.63l1.48.44c.1-.11.18-.28.27-.28A8.54,8.54,0,0,0,323,52.69s.12.08.21.14l.13-.4.61.25a1.13,1.13,0,0,1,1.11-.76.46.46,0,0,0,.27-.19,1.84,1.84,0,0,1,1.08-.78,1.61,1.61,0,0,0,.92-.49c.27-.41.95-.29,1.05-.9,0-.12.39-.17.65-.28,0-.32,0-.66,0-1a1,1,0,0,1,.09-.45,3.66,3.66,0,0,0,.31-1.32,3.69,3.69,0,0,1,.47-.87l-.24-.21.47-.81s0-.1.06-.13c.66-.48.49-1.34.89-1.92s.29-1.21.95-1.52c.15-.07.19-.4.27-.61s.31-.7.78-.61c.16-.75.84-1.62,1.29-1.67a2.86,2.86,0,0,1,1.3-2.55l.17.35H336c0-.17,0-.4,0-.51s-.08-.37.08-.51c.32-.26.68-.49.79-.94,0-.07.09-.18.13-.18.74,0,.69-.71,1.05-1a1.74,1.74,0,0,1,.29-.22l.63-.34a4.59,4.59,0,0,0,.83,0,2.63,2.63,0,0,1,1.55.45c.72.38,1.08,1.1,1.74,1.51.22.14.26.53.41.79s.38.57.53.87a1.47,1.47,0,0,1,.21.65,2.56,2.56,0,0,1-.62,2.12c-.12.11-.1.39-.12.6,0,.43-.18.76-.68.85.21.35.08.55-.19.83-.46.46-.78,1.06-1.25,1.5a6.65,6.65,0,0,0-1.33,2,.93.93,0,0,1-.69.58.53.53,0,0,0-.26.22c-.2.28-.35.59-.57.85-.09.11-.3.11-.45.16a3.11,3.11,0,0,1-.77,1.68l-.18.26c-.16.25-.22.61-.69.44-.09,0-.3.18-.43.31s-.27.3-.41.45,0,.29,0,.44l-.51,0h-.57l.4.75,1.84-.16s.07,0,.08,0c.34-.58,1-.58,1.53-.84a4.55,4.55,0,0,1,1.25-.29,2.75,2.75,0,0,0,.84-.4,3,3,0,0,1,1.66-.64c.08,0,.13-.16.21-.23s.29-.24.33-.21c.54.36.87-.43,1.37-.22.47-.48,1.21-.39,1.73-.81a4,4,0,0,1,.94-.37c.19-.08.35-.22.53-.31s.59-.23.87-.37.75-.38,1.11-.59.49-.38.75-.54c.61-.35,1.23-.67,1.85-1l1.34-.76.12.16a4.17,4.17,0,0,1,.65-.72,5.3,5.3,0,0,1,1-.43c0-.37.45-.25.64-.46a4.06,4.06,0,0,0,.48-.83c-.32-.42-.13-.89-.09-1.38.07-.7.05-1.4.06-2.11,0-.34,0-.68,0-1,0-.1.12-.19.18-.29s.28-.4.23-.5a1.5,1.5,0,0,1,.12-1.25.58.58,0,0,0,0-.28s-.08-.08-.07-.11c.12-.61-.12-1.26.22-1.84a2.24,2.24,0,0,0,.13-.47c.06-.21.14-.42.2-.63.12-.41.24-.81.33-1.22a1.92,1.92,0,0,1,.74-1.13,1.71,1.71,0,0,1,.75-1.46c.24-.13.41-.23.15-.51-.06-.07,0-.28,0-.39a3.19,3.19,0,0,1,.36-.46l.38.07.06-.24a7.29,7.29,0,0,0,.85-.44c.09-.06.1-.25.14-.38.13-.43.53-.33.83-.42.1,0,.26,0,.31,0a1.11,1.11,0,0,1,1-.38.2.2,0,0,0,.16-.09c.16-.49.59-.4,1-.45s.63-.12,1-.19c0-.13,0-.25.05-.36s.08,0,.09,0a1,1,0,0,0,1.3,0s.06,0,.08,0c.36.18.72,0,1.07,0a9.79,9.79,0,0,1,1.62.4c.19,0,.39,0,.56.09a3,3,0,0,1,.69.23,8.34,8.34,0,0,1,.92.7,1.59,1.59,0,0,1,.32.34,6.08,6.08,0,0,1,.31.56c.05.11.09.23.15.34.23.37.47.74.74,1.16l-.55.17c.19.09.46.13.53.27s0,.43,0,.66,0,.52,0,.81l-.37.05c0,.29,0,.53,0,.76a2.59,2.59,0,0,1,0,.46.88.88,0,0,1-.17.49c-.21.19-.4.33-.23.64a.1.1,0,0,1,0,.09L370.58,33c-.27.41-.52.84-.8,1.25a1.48,1.48,0,0,1-.32.3c-.08.07-.18.13-.27.19a2.87,2.87,0,0,0-.34.25.77.77,0,0,0-.18.28c0,.09,0,.22,0,.28a11.39,11.39,0,0,1-1.42,1.6A12.27,12.27,0,0,0,366,38.46c-.25.27-.57.47-.8.75a2.16,2.16,0,0,1-1,.87c-.13,0-.17.37-.26.57l-.25-.05c-.47.46-.88.84-1.28,1.23-.18.17-.33.37-.5.55a7.42,7.42,0,0,1-1.09.68,1.14,1.14,0,0,0-.45,1,15.61,15.61,0,0,0,.05,1.69,14.45,14.45,0,0,1,0,1.66c0,.48-.2,1-.26,1.43,0,.29,0,.6,0,.9s0,.6-.12.74c-.43.42-.2.89-.23,1.35,0,.19,0,.37-.07.57l-.55-.25c.55.9.31,1.21-.32,1.86-.08.08,0,.29-.1.39-.27.36-.23.92-.71,1.15a.12.12,0,0,0,0,.07c-.18.7-.21.73-.89.66-.05.93-.67,1.23-1.55,1.37l.34.13,0,.14-.61.31.05,0a4,4,0,0,1-.59.48,3.51,3.51,0,0,1-.62.17c-.12,0-.31.1-.33.19-.07.37-.38.37-.62.45s-.48.25-.7-.07c0,0-.39.14-.58.25s-.33.3-.52.35a13.41,13.41,0,0,1-1.48.28,1.28,1.28,0,0,1-.42-.1l-.12.3c-.05,0-.1,0-.14,0a2,2,0,0,0-1.3-.52c-.14,0-.28-.11-.42-.18a4.62,4.62,0,0,1-.92-.51,5.75,5.75,0,0,1-.74-.91c-.12-.17-.22-.35-.3-.48a2.45,2.45,0,0,0,.43-.57c0-.12-.08-.32-.17-.47s-.23-.33-.36-.52c.66-.18.81-.13,1.13.3a.84.84,0,0,1,1.17.22c.64-.21,1.23-.37,1.8-.59s1.09-.48,1.7-.75c0-.35.28-.53.76-.52.13,0,.29-.18.4-.31s.15-.39.29-.46c.63-.35.83-1,1.26-1.55s.81-1,1.22-1.56c-.28-.19-.18-.39,0-.58s.55-.62.27-1.07c0,0,0-.14,0-.22,0-.36.1-.72.13-1.08s.07-.9.1-1.39a4.85,4.85,0,0,0-2.49,1.42l-.65-.4.09.94c-.08,0-.19,0-.22,0-.27-.27-.53-.13-.77,0-.69.41-1.35.87-2,1.26a9,9,0,0,1-1.19.45l-.92.38.41.28c-.06,0-.1.08-.14.08a3.71,3.71,0,0,1-.74,0c-.33,0-.53.15-.79.3A4.26,4.26,0,0,1,345,52c-.13,0-.33-.23-.54-.4,0,.44-.27.59-.67.62-.17,0-.33.2-.51.29a4,4,0,0,1-.5.22l-.73.26c-.17.06-.33.13-.5.17s-.43.08-.61.11-.48.28-.72.4-.39.11-.55.21-.51.42-.88.24c0,0-.16,0-.2.08a1.06,1.06,0,0,1-.89.36c-.78,0-1.51.51-2.31.2a1.85,1.85,0,0,1-1.74-.11.34.34,0,0,0-.18,0,3.82,3.82,0,0,1-2.44-.86.53.53,0,0,0-.76.14c-.21.23-.45.42-.67.64s-.17.2-.27.32l-.27-.29a1.22,1.22,0,0,1-1,.88,3.58,3.58,0,0,0-1.48.76,5.84,5.84,0,0,1-2.29,1.17,11.08,11.08,0,0,1-1.92.74c-.72.11-1.45.13-2.18.19a3,3,0,0,1-.8.08c-.31-.06-.58-.28-.88-.36s-.47,0-.66,0l-1.38-.58a2,2,0,0,1-.54-.29c-.36-.31-.7-.64-1-1-.17-.18-.29-.43-.46-.61s-.48-.33-.62-.55c-.27-.43-.47-.91-.7-1.37a3.43,3.43,0,0,1-.44-.9c-.11-.54-.44-1-.58-1.58a2.62,2.62,0,0,1,.07-1c0-.2-.09-.39-.11-.59-.05-.46-.1-.93-.12-1.4a5.26,5.26,0,0,1,.09-.68c0-.13,0-.26,0-.39s0-.46.06-.69,0-.39,0-.59c.06-.58.09-1.16.19-1.73s.26-1.25.4-1.87c0-.06.09-.14.08-.16-.4-.51,0-1,0-1.52a.26.26,0,0,0-.43-.23,4.23,4.23,0,0,1-1.11.66c-.31.11-.53.52-.74.83s-.24.38-.53.35a.47.47,0,0,0-.33.12q-1.11,1-2.2,2.07a1.92,1.92,0,0,0-.34.43,1.84,1.84,0,0,1-.66.77c-.3.17-.48.54-.75.79a7,7,0,0,1-.76.54,1.92,1.92,0,0,1-.76,1.28c-.07,0-.19.05-.2.1a2.74,2.74,0,0,1-1.21,1.47l.25.37c-1,1.23-1.9,2.46-2.92,3.59a6.08,6.08,0,0,1-.83,1.61,2.29,2.29,0,0,0-.62,1,3.78,3.78,0,0,0-.06.54,3.7,3.7,0,0,0-1.42,1.8,1.08,1.08,0,0,1-.65.68c-.29.11-.39.65-.62,1a7.38,7.38,0,0,1-.69.83c-.16.17-.35.29-.53.45s-.4.51-.65,0l-.51.75-.25-.53-.62.42-1.59-1.42a.79.79,0,0,1,0-1.12c-.1-.11-.2-.22-.32-.32s-.35-.42.09-.54c.05,0,.11-.13.1-.19,0-.31.11-.46.43-.39a4.52,4.52,0,0,1,.9-1.94c.28-.54.7-1,1-1.51s.29-.77.79-.83c.06,0,.11-.13.15-.21s0-.17,0-.23a20.17,20.17,0,0,1,1.11-1.77c.4-.48.74-1,1.11-1.51.05-.08.08-.19.16-.23.64-.28.69-1,1-1.46,0-.05,0-.14.09-.15.74-.21.73-.92,1-1.44s.54-1.07,1.17-1.27c.06,0,.14-.11.14-.16-.07-.8.54-1.25.91-1.82.13-.21.2-.46.34-.66a2.5,2.5,0,0,1,.63-.71c.43-.26.33-.61.26-1,.65.16.64-.46.89-.77a9.37,9.37,0,0,0,.75-1.2,5.7,5.7,0,0,0,.27-.63c0-.11.09-.25.17-.3s.3-.47.41-.55c.35-.28.32-.7.54-1,.38-.49.7-1,1-1.54a2.86,2.86,0,0,0,.2-.59l.19.36c.2-.53.36-1,.57-1.45.06-.13.27-.18.41-.27a3.87,3.87,0,0,0,.57-.4s-.12-.24-.11-.36a1.61,1.61,0,0,1,0-.66,3.05,3.05,0,0,1,.55-.72,2.4,2.4,0,0,0,.73-1.62,3.24,3.24,0,0,1-.55.36,1.07,1.07,0,0,1-.39,0c-.28.09-.52.17-.77.24l-1.1.28a4.22,4.22,0,0,1-.9.25c-.19,0-.38-.2-.56-.3l-.63.53-.18-.37c-.07,0-.12,0-.12,0a.72.72,0,0,1-.68.35,7.52,7.52,0,0,0-1.14.27c-.51.1-1,.17-1.55.24a2.38,2.38,0,0,1-.5,0c-.09,0-.21-.08-.26,0-.6.42-1.33.24-2,.4-.44.11-.95.13-1.42.23-.66.14-1.32.29-2,.4s-1.4.18-2.09.3c-.54.09-1.06.24-1.59.37a.32.32,0,0,1-.18,0c-.78-.33-1.44.14-2.13.33s-.58.22-.62.69l-.21,0c-.65.07-.91.44-1.06,1.08a16.68,16.68,0,0,1-.68,1.53c-.2.57-.65.77-1.2,1l.35.2c-.16.32-.32.64-.46,1s-.07.46-.2.63a9.09,9.09,0,0,1-.81.83c.12.57.09.63-.76,1.1.24.64-.36,1-.54,1.52-.08.23-.37.39-.57.59a2.2,2.2,0,0,1-.29.8,5.55,5.55,0,0,0-.84,1.56s0,.08,0,.09c-.53.06-.37.56-.55.85,0,0,0,.08,0,.09-.73.3-.47,1.14-.88,1.62l-.8,1a.79.79,0,0,0-.1.25c-.08.33-.18.62-.56.49a1.62,1.62,0,0,1-.13.48c-.23.33-.53.63-.75,1-.33.53-.6,1.09-.9,1.65,0,.05,0,.14,0,.17-.65.48-.72,1.27-1.07,1.91-.11.19-.36.3-.54.46s-.31.27-.29.36c.16.58-.32.94-.49,1.39a11.17,11.17,0,0,1-1.1,1.89c-.09.13-.31.17-.47.25.18.48.13.54-.51.63A4,4,0,0,1,270.28,63c0,.06-.11.16-.09.2.24.47-.24.62-.37.93-.23.54-.92.81-.81,1.56,0,.17-.33.38-.48.6a5.42,5.42,0,0,0-.31.58c-.15.29-.28.6-.45.88s-.48.66-.71,1c0,.07,0,.17-.07.25s-.23.37-.32.56-.19.51-.29.77l-.35-.26.34.85-.11,0c-.08.19-.16.39-.25.58a1.84,1.84,0,0,1-.2.3c0,.06-.12.09-.14.16a3.34,3.34,0,0,1-.45,1c-.74.73-.79,1.77-1.25,2.62-.08.15-.25.25-.4.39.34.38,0,.64-.17.94s-.4.61-.4.92c0,.54-.38.73-.67,1a.71.71,0,0,0-.23.34c-.08.4-.26.36-.51.16-.12.54-.16.55-.68.29-.09,0-.23,0-.35,0a1.91,1.91,0,0,1-1.21-.37,1.93,1.93,0,0,0-.58-.2l.32-1.53-.7.3a1.27,1.27,0,0,1,.32-1.67,1.69,1.69,0,0,1,.41-1.9,1.47,1.47,0,0,0,.21-.37c.15-.27.31-.54.44-.82s.14-.48.23-.71a16.25,16.25,0,0,1,.67-1.54c.2-.38.33-.84.83-1,.11,0,.22-.33.2-.48-.1-.6.34-.95.58-1.39.14-.27.3-.53.45-.79ZM365.25,27.41l0-.09c-.09.1-.2.3-.26.29-.43-.09-.58.3-.87.43a2.93,2.93,0,0,0-1.35,1c-.24.36-.52.68-.75,1a2.65,2.65,0,0,0-.18.6c-.15.46-.31.92-.44,1.39s-.17.65-.24,1c-.12.53-.25,1.06-.33,1.6-.12.88-.2,1.77-.3,2.77a8.59,8.59,0,0,0,1-.64c.4-.35.77-.75,1.14-1.13a1.55,1.55,0,0,0,.21-.3,4.51,4.51,0,0,1,.42-.7c.29-.33.64-.62,1-.93l.87-.84.42-.4a2.94,2.94,0,0,1,.21-.74c.16-.26.44-.45.61-.7.3-.43.57-.88.86-1.32a1.3,1.3,0,0,1,.19-.18,2.68,2.68,0,0,0,.42-.48c.14-.26.19-.56.33-.82a2.37,2.37,0,0,1,.4-.44v-.65a7.43,7.43,0,0,0-1.42.34.81.81,0,0,1-1-.11.59.59,0,0,0-.4-.07A2.69,2.69,0,0,0,365.25,27.41Zm-83.72,9.7.9-.34c-.07-.07-.2-.31-.29-.29a1.89,1.89,0,0,0-.69.29S281.51,37,281.53,37.11ZM267.07,60.57c.29.49.53.2.79.1,0-.05,0-.11,0-.17Z"/><path class="cls-1" d="M341.24,16.87a2.55,2.55,0,0,0-.38,0,4.66,4.66,0,0,0-.82.24c-.24.11-.43.31-.66.43s-.24,0-.37,0a1.36,1.36,0,0,0-.22-.05,5.29,5.29,0,0,0-.76.08c-.11,0-.2.14-.28.21l-.83-.62.35-.33-.33-.8c.37,0,.3-.71.83-.51a3.33,3.33,0,0,1,.25-1.08c.15-.25.54-.36.82-.54s1-.46,1.16-.82c.21-.59.91-.47,1.1-1,0-.06.37,0,.45,0l.51-.54s.06,0,.08,0a9.51,9.51,0,0,1,2.17-1.67A5.2,5.2,0,0,0,345.43,9c.21-.26.63-.35,1-.53,0,.06,0,.19.09.25a2.29,2.29,0,0,0,.43.22c0-.12.15-.26.12-.37-.15-.58.22-.78.65-1s.61-.54,1-.1A1.7,1.7,0,0,1,350.31,6c.14-.71.48-1,1-1,.39-.37.73-.69,1.06-1,.14-.13.23-.3.37-.44.29-.29.59-.56.89-.84,0,0,.13-.08.13-.12,0-.42.27-.59.66-.63.07,0,.19-.12.19-.18,0-.75.79-.66,1.06-1.21-.06-.22.1-.52.54-.54a10,10,0,0,1,1.67.23l-.28.4a.64.64,0,0,1,.85.16,4.65,4.65,0,0,1,.34.61c.73.17.75.19.7.54l-.67.55.61.1a.68.68,0,0,1-.09.86c-.23.25-.24.69-.44,1a2.29,2.29,0,0,1-.75.6c-.1.23,0,.6-.51.52,0,0-.08.19-.13.32L357,5.53a2.18,2.18,0,0,1-.9,1.58c-.37.34-.87.54-1.15,1s-.8.5-1.21.76a1,1,0,0,0-.4.35c-.11.24-.18.44-.51.43-.09,0-.18.23-.28.38a1.22,1.22,0,0,0-1.08.61c0,.06-.15.09-.24.12a6.76,6.76,0,0,0-2,1.21,7.09,7.09,0,0,1-1.16.67l-.08,0c-.43.32-.43.33-.86.3.35.66,0,.67-.44.62l-2.5,1.48-.32-.49c-.07.67-.59.9-1,1.26s-1,.36-1.39.62C341.35,16.56,341.32,16.72,341.24,16.87Z"/></g><g id="RhdxXX"><path class="cls-1" d="M68.84,55.9l-.79.17c.38.28.53.53.11.8,0,0,0,.22.06.33h.13a5,5,0,0,0-.43,1.33,4.21,4.21,0,0,0,.33,1.53,1.72,1.72,0,0,0,.64.74c.18.12.48.07.73.1.3-.43.4-1.07,1.1-1.12a.15.15,0,0,0,.11-.09c.13-.48.41-.48.84-.18l-.11-.38,1.65-1.47a.2.2,0,0,0,.07-.13c0-.7.42-.39.76-.31C73.9,56,74.8,56,75.63,55.84l-.53-.16.3-.55.5.52c0-.32,0-.55,0-.72l.7-.23-.22-.59c.12-.36,1-.26.78-.87a4.9,4.9,0,0,0,.9-.64.72.72,0,0,1,1-.15,4.85,4.85,0,0,0,.82-.71.66.66,0,0,0-.21-.84,6.35,6.35,0,0,1,.82-1,3.83,3.83,0,0,1,1.77-.8,6.48,6.48,0,0,1,1.45-.37c.75,0,.72-.57,1-.92s.41-.47.61-.71.1-.26.18-.36c.37-.45.39-1.13.94-1.45s.42-.57.13-1c.57.2.81,0,.89-.49a.32.32,0,0,1,.15-.17,3.34,3.34,0,0,0,1.51-1.19c0-.08.21-.08.3-.15s.57-.34.58-.53c0-.55.42-.74.77-1a5,5,0,0,0,.52-.5c.09-.09.17-.23.28-.28.84-.33,1.2-1.17,1.85-1.7s1.22-1.33,2.18-1.49c.11,0,.18-.24.29-.41.71.29,1.55-.4,2.3.28a1.37,1.37,0,0,1,.34-.18c.3-.08.65-.32.84.2,0,.14.26.25.42.32.47.19.59.64.78,1s.43.86.61,1.3a.81.81,0,0,1,0,.38s-.06.06-.09.09c.35.36.11.56-.15.84a1.53,1.53,0,0,0-.32.77c0,.3-.22.33-.45.35A1.41,1.41,0,0,0,99,42.88a.44.44,0,0,1-.2.29c-.81.32-1.09,1.15-1.63,1.72s-.56.66-1,.65c-.26.28-.44.49-.63.69a5,5,0,0,0-.57.52c-.15.19-.21.44-.39.57a1.81,1.81,0,0,0-.44.21,4.76,4.76,0,0,1-1.52,1.12c-.06,0-.15,0-.17.09-.24.68-.93.67-1.41,1s-.83.42-1.19.7c-.14.11-.16.37-.3.46s-.52.25-.78.39c-.1.05-.17.19-.27.2-.62.08-.79.62-1,1-.32.62-.55,1.28-.82,1.93a1.66,1.66,0,0,0,.2,1.72,11.29,11.29,0,0,1,1,1.66c.17.36.39.37.71.35a2.45,2.45,0,0,1,.64.14l0,.2a2.67,2.67,0,0,1,.48-.49,2.82,2.82,0,0,1,.73-.25c.28-.07.57-.12.85-.18l.52-.12c.09,0,.26,0,.27-.07.15-.68.77-.52,1.2-.7a1,1,0,0,0,.24-.16c.4-.33.79-.68,1.19-1,.07-.05.21,0,.33,0s0,.21,0,.33c.23-.06.66,0,.37-.5,0,0,0-.17.09-.22.27-.24.56-.48.85-.71a3.18,3.18,0,0,1,.6-.41,3.47,3.47,0,0,1,.69-.16c-.37-.44,0-.6.33-.83.54-.42,1.2-.72,1.49-1.42,0-.08.14-.13.21-.19.26-.21.54-.41.78-.65s.5-.41.87-.19.27.37.1.61l-.52.74c.47,0,.89,0,.61.53a.22.22,0,0,0,.09.2.23.23,0,0,0,.22,0c.16-.3.49-.58.26-.91.24-.47.49-.9.69-1.35a7.27,7.27,0,0,1,1.28-2.6,2.48,2.48,0,0,0,.45-1.19A4.31,4.31,0,0,1,105.64,45c.06-.07.21-.13.21-.19,0-1.12.91-1.69,1.44-2.49a2.67,2.67,0,0,0,.5-1,1.05,1.05,0,0,1,.53-.58c.46-.25.29-.54.12-.86.57-.49,1.14-1,1.7-1.48a.48.48,0,0,0,.09-.42c-.13-.35-.09-.54.31-.67a1.23,1.23,0,0,0,.64-.54,4.2,4.2,0,0,1,1.5-1.41c.07,0,.16-.07.2-.14A3,3,0,0,1,115.31,34a2.51,2.51,0,0,1,1.41.92c.13.33.21.67.32,1,0,.06.12.1.15.16a1.47,1.47,0,0,1,.09.38c0,.07,0,.14,0,.21s.17.5.09.6a2.77,2.77,0,0,1-.78.56.68.68,0,0,1-.33,0l-.61.73a1.57,1.57,0,0,1-.77.93c-.26.12-.42.46-.64.69s-.25.25-.43.42c.18.62-.45.93-.78,1.4a7.61,7.61,0,0,0-1.44,2.12A3.51,3.51,0,0,1,111,45c-.33.48-.68,1-1,1.43s-.52.81-.79,1.22l.1.13.8-.17c-.33-.71.42-.77.71-1.09a6.31,6.31,0,0,1,1.33-1,3,3,0,0,1,.68-.23,1.07,1.07,0,0,1,1-1c.11,0,.23.19.43.36a.9.9,0,0,1,.52-1.1c.09,0,.07-.33.1-.54a.65.65,0,0,0,.68-.59,1.07,1.07,0,0,1,.64-.57,2.45,2.45,0,0,0,1.15-.93,8.77,8.77,0,0,1,.89-.78c.25-.25.44-.57.7-.8a7,7,0,0,1,.83-.54c.1-.06.23-.12.28-.21a.38.38,0,0,1,.56-.23.41.41,0,0,0,.32-.07c.26-.18.51-.42.75,0,0,0,.14.05.19,0,.59-.25,1.07.09,1.61.28-.21.41.19.53.4.65a1.37,1.37,0,0,1,.82,1.08,1.86,1.86,0,0,0,.19.45c.16.36.35.71.08,1.1-.05.08-.11.25-.09.27.6.45.12,1.1.29,1.65s-.27,1-.59,1.41c.28.31.16.66-.42,1.08l.47.16-.71.3c.06.2.19.43.16.62a3.36,3.36,0,0,1-.37.78,1.82,1.82,0,0,0-.19.42,11.5,11.5,0,0,0-.16,1.25,2.55,2.55,0,0,0,.06,1.08c.3.72.35,1.58,1,2.09a1.45,1.45,0,0,0,1.27.05,5.66,5.66,0,0,0,1.34-.56c.39-.21.67-.62,1.19-.56.06,0,.15-.11.19-.19.13-.24.16-.44.58-.49s.87-.54,1.33-.8.53-.7,1-.71a.12.12,0,0,0,.08-.06c.27-.71,1.07-.73,1.53-1.19.13-.12.23-.28.35-.41s.24-.22.45-.4l0,.67c.2-.23.32-.38.44-.51s.29-.29.41-.45a.69.69,0,0,0,.16-.34c.08-.57.2-.68.82-.66.08,0,.21,0,.24-.09a2,2,0,0,1,1-.9,10.06,10.06,0,0,0,1.44-1.25c.47-.41,1-.8,1.46-1.17a1.67,1.67,0,0,1,.61-.11,3,3,0,0,1,.15-.64.51.51,0,0,1,.37-.23.63.63,0,0,1,.31.08l1.35-1.3c0-.22.17-.37.54-.49.74-.24.73-.27.62-1l.43,0a1,1,0,0,1,1.18-.65l-.19-.54a4,4,0,0,0-.88.2c-.4.19-.75.45-1.25.27-.12,0-.33.19-.51.25-.83.24-1.66.45-2.49.67a3.88,3.88,0,0,1-.44,0,3.14,3.14,0,0,0-1.09.18c-.35.17-.85,0-1.27.1a1.35,1.35,0,0,1-1.63-.85c-.05-.11-.33-.17-.5-.15-.41,0-.6-.09-.68-.51s-.28-.78-.35-1.19a2.17,2.17,0,0,1,.15-.73c-.13-.07-.31-.19,0-.45s1-.68,1.55-.42a1.3,1.3,0,0,0,1,0,7,7,0,0,0,.86-.35,2,2,0,0,1,.68-.14,7.5,7.5,0,0,0,2.25-.61,12.76,12.76,0,0,1,1.31-.21,1,1,0,0,0,.49-.17.9.9,0,0,1,1-.24c.12,0,.28-.11.43-.14.71-.18,1.42-.33,2.12-.52s1.66-.47,2.49-.69c.34-.09.68-.14,1-.22s.44-.09.57-.43a18.77,18.77,0,0,1,1-1.87,12.93,12.93,0,0,1,1.16-2.34c.57-.72.78-1.58,1.26-2.32.07-.12.08-.28.14-.41a2.52,2.52,0,0,1,.45-.75c.35-.31.78-.49.82-1.08,0-.24.34-.49.57-.69.4-.35.64-1,1.27-.82a2.08,2.08,0,0,1,.16-.79c.57-.78,1.16-1.55,1.8-2.28a2.89,2.89,0,0,1,.93-.65,10.22,10.22,0,0,0,2.72-2.42c.63-.63,1.17-1.35,1.77-2a8.52,8.52,0,0,1,.87-.71,7,7,0,0,1,.6.72,12,12,0,0,1,.76,1.32,1.34,1.34,0,0,1-.1,1.56c.37.24.13.52,0,.74s-.31.17-.56.29a.22.22,0,0,0,0,.16c.21.23.22.35-.08.53s-.21.4-.32.6c-.35.69-.72,1.37-1.1,2.1l-.43-.06c.71.59.38,1-.15,1.3l.19.26-.8.31.5.24c-.06.24,0,.53-.44.5,0,0-.16.18-.16.29s.05.29,0,.38L162,25.31c-.25.1-.56.19-.56.66,0,.06-.16.11-.19.19a1.46,1.46,0,0,0-.2.7c.07.3,0,.44-.24.58s-.47.23-.27.55a.18.18,0,0,1,0,.13L160,29l-.31-.24-.11.08.33.43c-.12.23-.2.59-.66.44l-.4.58a1.38,1.38,0,0,0,.37.08c.28,0,.56-.07.84-.11s.4-.07.61-.08.68,0,1-.07l2.82-.4,1.45-.22.3.45c.22-.31.39-.62.8-.38,0,0,.14-.06.21-.1a1.61,1.61,0,0,1,1.77.09c.27-.7.86-.25,1.3-.38l.51-.14a1,1,0,0,1,.18-.07c1.09,0,2.17-.09,3.26-.11.32,0,.65.15.86-.25,0,0,.19,0,.28,0a1.9,1.9,0,0,0,1.53,0c.2-.1.55.08.86.14l-.09.46.09.09.33-.29c.15-.12.29-.33.45-.34.52,0,1,0,1.56,0s.82,0,1.23,0a2,2,0,0,1,.9.16c.68.42,1.66.49,1.87,1.52,0,.12.22.25.37.3a.55.55,0,0,1,.36.61c0,.16-.23.31-.39.49l.3.37c-.14,1-1,1.18-1.65,1.63,0,0-.13-.1-.17-.08-.58.45-1.21,0-1.79.11s-1-.12-1.49.18c-.16.1-.53-.16-.93-.29-.44,0-1,.37-1.67,0-.27-.15-.79.12-1.19.21a1.2,1.2,0,0,0-.21.09c-.34-.71-.89.19-1.3-.16-.05,0-.3.14-.49.24-.24-.27-.49-.23-.85,0s-.74,0-1.11.05c-.83,0-1.65.08-2.47.16s-1.59.2-2.38.29a3.79,3.79,0,0,1-.49,0c-.15,0-.34,0-.43,0a1.7,1.7,0,0,1-1.45.21,3.43,3.43,0,0,0-1.46.18,6.26,6.26,0,0,1-.94.16l-4,.52c-.47.06-.94.06-1.41.12s-1,.18-1.55.26a3.5,3.5,0,0,1-1.15,0l-1.16.82c-.31,0-.31,0-.3.59-1,0-1.2.87-1.46,1.54a8.25,8.25,0,0,1-.81,1.45,6.33,6.33,0,0,0-.35.79c-.27.07-.45.26-.47.78s-.4.87-.65,1.3c0,.07-.21.05-.22.05-.07.26-.14.47-.18.69-.12.71-.7,1.13-1.07,1.67-.17.24-.36.46-.59.74.21.29-.09.67-.28,1a6.78,6.78,0,0,0-.78,2.54,2.57,2.57,0,0,1-.07.66c-.08.16-.31.23-.57.41,0,.57-.07,1.29-.11,2h-.35a.29.29,0,0,0,0,.11l.15.67a1.45,1.45,0,0,0,.11.46c.27.39.25.52-.17.75a2.5,2.5,0,0,0-.36.31c.19.24,0,.8.63.71,0,0,.16.15.16.22,0,.62,1,1,.45,1.73a7.17,7.17,0,0,0-.53,1.08l.46.23c-.21.31-.32.62-.53.73-.39.21-.21.47-.21.75a2,2,0,0,1-.17.59c0,.12-.15.28-.11.35.23.45-.11.74-.31,1s-.47.08-.68.1-.44.51-.5.47a4.77,4.77,0,0,1-1-.77c-.12-.12-.12-.37-.19-.59-.55.24-.74,0-.75-.51,0-.22-.19-.43-.29-.65a7.19,7.19,0,0,1-.39-2c-.07-.55-.12-1.12-.23-1.67,0-.08-.08-.19,0-.24.19-.31.55-.61,0-.9,0,0,0-.13,0-.14.38-.22.14-.59.19-.87a15.33,15.33,0,0,1,.2-2c.17-.55-.16-1.17.35-1.67.16-.17,0-.63,0-1a1.94,1.94,0,0,1,.08-.38c.13-.5.24-1,.4-1.51a6.41,6.41,0,0,1,.38-.86c.11-.23.25-.44.44-.77-.43.08-.82-.23-.88.42,0,.22-.47.4-.72.59-.08.06-.23.07-.26.14-.32.93-1.3,1.17-1.89,1.8a2.22,2.22,0,0,1-.37.37c-.74.51-1.49,1-2.23,1.5-.38.27-.72.59-1.08.89-.59.5-1.18,1-1.79,1.5-.09.07-.28,0-.43,0A4.39,4.39,0,0,1,131,55.62a2.88,2.88,0,0,0-1.26,1c-.08.13-.37.18-.58.19a.85.85,0,0,0-.82.45.5.5,0,0,1-.34.19,4,4,0,0,0-.69.08c-.35-.25-.64-.28-.9.16a.4.4,0,0,1-.37.12,2.68,2.68,0,0,0-1.2-.2,2.63,2.63,0,0,1-1.29-.52,7.93,7.93,0,0,1-1.75-1.33c-.49-.56-1.14-1-1.26-1.9a1.56,1.56,0,0,0-.79-1.36c-.09,0-.15-.22-.17-.34a13.91,13.91,0,0,1-.16-1.68c0-.33.31-.61.08-1a3,3,0,0,1-.12-1.13.74.74,0,0,1,0-.2c.22-.87.45-1.74.65-2.62a3.57,3.57,0,0,0,.07-.88c0-.1-.13-.19-.16-.24-.51.49-1,.94-1.47,1.41A15.6,15.6,0,0,1,117.25,47a7,7,0,0,0-1.34,1.25c-.08.11-.35.07-.57.11l.14.22c-.44.31-.94.57-1.16,1.15a3,3,0,0,0-1.33,1,12.44,12.44,0,0,1-1.13,1,3,3,0,0,0-.47.43c-.26.36-.44.83-1,.48-.08,0-.26.09-.45.16.51.85-.34,1-.67,1.49s-1,.44-1.43.75c.18.56.17.6-.46,1a15.06,15.06,0,0,1-1.35.79c-.15.07-.4-.07-.66-.12a.85.85,0,0,1-.13.24c-.16.17-.27.27-.51,0a2.6,2.6,0,0,0-1-.53l-1.11-1,.33-.16-.63-.73-.19.26H102c0-.22,0-.45,0-.71-.36-.33-.61-.23-.92.2s-.79.81-1.17,1.23c-.24.27-.41.61-.65.88s-.15,1.11-.83,1.29c-.08,0-.11.21-.17.35L97.84,58c0,.85-.77,1.1-1.28,1.57a3.83,3.83,0,0,1-1.47.92c-.37.24-.64.43-.93.6a9.48,9.48,0,0,1-1,.55,17.15,17.15,0,0,1-1.71.65,3.66,3.66,0,0,1-.82,0,2.43,2.43,0,0,0-.75.1c-.44.18-.54.18-.84-.15l-.44.42-.42-.45a1.45,1.45,0,0,1-1.56-.45s-.11-.12-.16-.11c-1,.12-1.23-.78-1.81-1.21-.75-.56-1-1.48-1.56-2.19a.71.71,0,0,1-.2-.71.76.76,0,0,0-.27-.56,1.45,1.45,0,0,1-.35-1.41,3,3,0,0,0-.1-.72l-.2-.05-1.14,1.39a1.49,1.49,0,0,0-.83.87c-.1.21-.58.25-.89.36a1.11,1.11,0,0,1-.27,0l.48.47c-.68.31-1,1-1.79,1.2-.07,0-.2.1-.19.14.09.55-.41.54-.68.77a2.36,2.36,0,0,0-.36.57,3.71,3.71,0,0,0-.7.58c-.2.25-.29.55-.71.45,0,0-.16.27-.23.42l-.22.43-.29-.72-.14,0c.13.68-.32,1.07-.67,1.54-.53.72-1.39.94-2.08,1.43-.21.15-.54.15-.7.43,0,0-.21,0-.21,0a3.18,3.18,0,0,1-.06-.49c-.31.31-.53.56-.78.78a.59.59,0,0,1-.43.17,11.49,11.49,0,0,1-1.12-.42c0-.16.07-.33.1-.5l-.11,0-.28.3-.79-.4c0-.09,0-.23,0-.38-.6.23-.6.23-.95-.65l.34.06.06-.12c-.14-.07-.27-.16-.42-.21s-.47-.07-.56-.19a12.22,12.22,0,0,1-.68-1.28q-.18-.36-.35-.73c0-.07-.08-.19-.05-.23.33-.42.07-.72-.17-1.06-.06-.08,0-.29.08-.42a5.42,5.42,0,0,1,.28-.5l-.13-.09-.43.41c.1-.37-.29-.8.33-1L63.66,58c.09-.21-.24-.5.14-.72,0,0,0-.21,0-.32s0-.44,0-.66a4.62,4.62,0,0,0-.06-.5c0-.09-.08-.2-.05-.27.23-.54.2-1.23.86-1.53,0,0,0-.06,0-.12h-.41a6.36,6.36,0,0,1,.15-.91c.16-.5.37-1,.57-1.48.12-.28-.21-.79.23-.79.2-.44.36-.77.49-1.1.06-.14,0-.31.09-.46A5,5,0,0,1,66.15,48c.26-.39.66-.69.92-1.08a3,3,0,0,0,.23-.8,3.4,3.4,0,0,1,.21-.55c.12-.26.25-.5.39-.75s.36-.62.54-.93A4.53,4.53,0,0,0,69,42.8l.48-.13-.33-.43a2.13,2.13,0,0,0,.74-1.18A1.5,1.5,0,0,1,70.74,40c.08,0,.15-.12.23-.17a1,1,0,0,1,.24-.13c.39.5,1,0,1.46.39.13.11.39.24.38.34,0,.58.52.76.71,1.17.06.12.17.27.14.37A11.88,11.88,0,0,1,73,44.38c-.46.76-.92,1.51-1.3,2.31-.06.12,0,.29-.08.42s-.22.48-.35.75l.47.44c-.55-.06-.69.22-.81.59-.06.17-.34.27-.48.37-.11.56-.19,1.13-.35,1.67-.12.38-.43.71-.54,1.09a13.26,13.26,0,0,0-.84,3.31A2.61,2.61,0,0,0,68.84,55.9Z"/></g></g></g></svg>