<?xml version="1.0" encoding="utf-8"?>
<!-- Generator: Adobe Illustrator 16.0.4, SVG Export Plug-In . SVG Version: 6.00 Build 0)  -->
<!DOCTYPE svg PUBLIC "-//W3C//DTD SVG 1.1//EN" "http://www.w3.org/Graphics/SVG/1.1/DTD/svg11.dtd">
<svg version="1.1" id="Layer_1" xmlns="http://www.w3.org/2000/svg" xmlns:xlink="http://www.w3.org/1999/xlink" x="0px" y="0px"
	 width="75px" height="75px" viewBox="0 0 75 75" enable-background="new 0 0 75 75" xml:space="preserve">
<path d="M30,10.5c10.777,0,19.5,8.723,19.5,19.5c0,10.777-8.723,19.5-19.5,19.5c-10.777,0-19.5-8.723-19.5-19.5
	C10.5,19.223,19.223,10.5,30,10.5z M30,9C18.41,9,9,18.41,9,30s9.41,21,21,21c5.527,0,10.543-2.148,14.297-5.648l20.414,20.414
	c0.277,0.281,0.797,0.301,1.078,0.023s0.277-0.797,0-1.078L45.375,44.297C48.867,40.543,51,35.523,51,30C51,18.41,41.59,9,30,9z"/>
</svg>
